# xmcd
#
# Track frame offsets:
#  150
#  20615
#  49292
#  91757
#  112830
#  135777
#  158612
#  182797
#  201032
#  230995
#  264370
#
# Disc length: 3689 seconds
#
# Revision: 4
# Processed by: cddbd v1.5.1PL0 Copyright (c) Steve Scherf et al.
# Submitted via: Collectorz.com_Music_Collector 6.9
#
DISCID=860e670b
DTITLE=Buddy Guy - Buddy's Blues
DYEAR=1998
DGENRE=Blues -  Blues Electric -  Blues Guitar
TTITLE0=She Suits Me To A T
TTITLE1=Have You Ever Been Lonesome?
TTITLE2=Tell Me What's Inside Of You
TTITLE3=Girl You're Nice and Clean
TTITLE4=She Winked Her Eye
TTITLE5=Me and My Guitar
TTITLE6=D.J. Play My Blues
TTITLE7=Buddy's Blues Part 1
TTITLE8=The Dollar Done Fell
TTITLE9=Breaking Out On Top
TTITLE10=Comin' On
EXTD=
EXTT0=
EXTT1=
EXTT2=
EXTT3=
EXTT4=
EXTT5=
EXTT6=
EXTT7=
EXTT8=
EXTT9=
EXTT10=
PLAYORDER=
